<?xml version="1.0" encoding="UTF-8"?>
<svg version="1.2" xmlns="http://www.w3.org/2000/svg" width="1024" height="1024">
<title>SnigJi</title>
<path d="M0 0 C337.92 0 675.84 0 1024 0 C1024 337.92 1024 675.84 1024 1024 C686.08 1024 348.16 1024 0 1024 C0 686.08 0 348.16 0 0 Z " fill="#FEFCFB" transform="translate(0,0)"/>
<path d="M0 0 C0.0928125 -1.85625 0.0928125 -1.85625 0.1875 -3.75 C0.34649331 -6.92986625 0.81277981 -7.81463071 3.1237793 -10.1027832 C6.61158048 -12.40341159 8.57808623 -12.50266593 12.7265625 -12.49609375 C14.6446875 -12.49706055 14.6446875 -12.49706055 16.6015625 -12.49804688 C17.5920459 -12.48245728 17.5920459 -12.48245728 18.60253906 -12.46655273 C20.62647874 -12.43747876 22.64781418 -12.44597816 24.671875 -12.45898438 C34.44175654 -12.39483869 34.44175654 -12.39483869 36.65931988 -10.82638359 C38.52842542 -8.28013588 38.37473872 -6.51745629 38.3742218 -3.37380981 C38.38123611 -2.20207718 38.38825043 -1.03034454 38.39547729 0.17689514 C38.38783356 1.46413986 38.38018982 2.75138458 38.37231445 4.07763672 C38.37474243 5.4461342 38.3784618 6.81462992 38.38337708 8.18312073 C38.39279792 11.90486597 38.38334602 15.62634869 38.37004495 19.34807348 C38.35872279 23.2511025 38.36283914 27.1541187 38.36479187 31.05715942 C38.36567565 37.62278518 38.35458566 44.18830789 38.33618164 50.75390625 C38.31510076 58.31716876 38.31148485 65.88027934 38.3177436 73.44356525 C38.32346833 80.73764649 38.31774953 88.03167483 38.30657005 95.32574844 C38.30195599 98.41870234 38.30103638 101.51162355 38.3031559 104.60457993 C38.3050599 108.26374079 38.29677532 111.92275038 38.2810955 115.58187675 C38.27492421 117.5438479 38.2783292 119.50584211 38.28216553 121.46781921 C38.1480753 144.17824431 32.07419876 162.64913689 16 179 C15.38511719 179.62777344 14.77023437 180.25554687 14.13671875 180.90234375 C-3.69780419 197.74393822 -28.92490958 202.87224714 -52.671875 202.28125 C-73.30938006 201.40118582 -95.81004804 194.38210148 -111.609375 180.7734375 C-113.42884345 178.45310414 -113.8176775 176.94320602 -114 174 C-111.86075858 166.70620544 -107.55722325 154.52478075 -101 150 C-96.01057916 150.14134337 -92.32453548 152.28843562 -88.125 154.75 C-72.10719188 163.70863607 -53.13688171 167.90871716 -34.9375 163.9375 C-23.20835753 160.55013632 -12.26782114 155.125174 -5.48046875 144.65625 C-0.31918109 135.25586441 0.36702976 125.5419103 0 115 C-0.43828125 115.49628906 -0.8765625 115.99257813 -1.328125 116.50390625 C-13.5349071 129.579057 -30.34435152 135.67045052 -47.96655273 136.33691406 C-66.43770005 136.66283862 -84.81347275 131.18536144 -98.5625 118.5 C-100.42163779 116.70433599 -102.20983033 114.86693039 -104 113 C-104.68707031 112.29746094 -105.37414062 111.59492187 -106.08203125 110.87109375 C-118.99608872 96.94416903 -123.16568543 79.94528362 -123.25 61.375 C-123.270625 60.26253906 -123.29125 59.15007812 -123.3125 58.00390625 C-123.40298591 38.5720565 -115.64899427 20.91475664 -102.375 6.8125 C-73.7508729 -20.49456604 -32.02147919 -21.87293952 0 0 Z " fill="#0EB431" transform="translate(651,470)"/>
<path d="M0 0 C0.66291046 0.00054382 1.32582092 0.00108765 2.00881958 0.00164795 C19.86388194 0.06893109 40.38240523 3.32777591 54.4375 15.375 C55.9266709 18.35334179 55.64139394 21.41520559 55.67578125 24.68359375 C55.683853 25.40611832 55.69192474 26.12864288 55.70024109 26.87306213 C55.71407444 28.40208541 55.72479996 29.93113946 55.73266602 31.46020508 C55.74990961 33.80023372 55.79380195 36.13886024 55.83789062 38.47851562 C55.84801512 39.96353127 55.85653198 41.44855893 55.86328125 42.93359375 C55.88078934 43.6336705 55.89829742 44.33374725 55.91633606 45.05503845 C55.90185036 48.29327723 55.82824867 49.95174484 53.58862305 52.37768555 C51.4375 53.375 51.4375 53.375 48.59375 52.7734375 C45.2913143 51.31022961 42.12235263 49.70404498 38.9375 48 C23.71350542 40.1520979 2.36873285 34.62542018 -14.5625 39.5 C-20.39425642 41.8547092 -24.37957271 45.31441698 -27.5 50.75 C-29.20030505 56.55104075 -29.43177105 60.99706982 -27 66.5 C-19.09782373 80.36252084 1.74693515 85.95013391 15.50488281 91.89892578 C27.45730325 97.11558236 38.63029194 102.67673419 48.4375 111.375 C49.40816406 112.22191406 49.40816406 112.22191406 50.3984375 113.0859375 C58.84133155 120.93893503 62.539272 130.40632174 65.4375 141.375 C65.72947266 142.36113281 65.72947266 142.36113281 66.02734375 143.3671875 C68.86365879 157.25162491 65.54988656 173.35964634 58.453125 185.40625 C46.38612267 203.17935421 29.09522832 212.41382735 8.4375 216.375 C-18.16106297 220.31063643 -48.35421017 215.22750638 -70.5625 199.375 C-72.88671875 197.625 -72.88671875 197.625 -74.5625 195.375 C-74.8046875 192.01171875 -74.8046875 192.01171875 -74.4375 188.0625 C-74.37618896 187.36479492 -74.31487793 186.66708984 -74.25170898 185.94824219 C-74.04857671 183.75352512 -73.81006169 181.56511841 -73.5625 179.375 C-73.48692871 178.66617676 -73.41135742 177.95735352 -73.33349609 177.22705078 C-71.82587404 163.3549909 -71.82587404 163.3549909 -69.5625 160.375 C-66.60922064 159.39810444 -65.06411351 159.1882621 -62.12158203 160.28369141 C-61.27966309 160.75983887 -60.43774414 161.23598633 -59.5703125 161.7265625 C-58.15250488 162.50604248 -58.15250488 162.50604248 -56.70605469 163.30126953 C-55.70993164 163.86185059 -54.71380859 164.42243164 -53.6875 165 C-33.8678455 175.7431607 -14.18402239 181.68834457 8.32421875 176.35546875 C13.64599654 174.679476 16.97376833 172.37543328 20.3125 167.8125 C23.11873996 161.73231342 23.58780992 154.59524533 21.82421875 148.125 C18.22960445 140.0173237 11.27823576 135.62849096 3.6875 131.59765625 C3.03528976 131.25086319 2.38307953 130.90407013 1.71110535 130.54676819 C-6.42071582 126.3042601 -14.89400354 122.89842184 -23.38208008 119.44506836 C-40.75621757 112.34988129 -58.1774503 104.28113839 -66.5625 86.375 C-73.04993798 70.84700329 -73.73338626 55.17708258 -67.5625 39.375 C-59.72978741 21.32881112 -45.0294241 10.5277282 -27.33984375 3.234375 C-18.26812778 0.42737428 -9.46255756 -0.01310191 0 0 Z " fill="#0FB431" transform="translate(202.5625,388.625)"/>
<path d="M0 0 C12.93443355 8.99612844 21.57353024 21.04805518 24.5715332 36.66674805 C26.06907989 45.95199974 25.87670498 55.31514627 25.8984375 64.6953125 C25.90741832 66.70882224 25.9165404 68.72233135 25.92579651 70.73583984 C25.94219257 74.9314943 25.94997123 79.12706974 25.95288086 83.32275391 C25.95830063 88.70090298 25.99616769 94.07831382 26.04162502 99.45625305 C26.07131719 103.60319777 26.07860247 107.74996137 26.07960701 111.89700317 C26.08381343 113.88098588 26.09626461 115.86496893 26.11712456 117.84884644 C26.14391777 120.61333818 26.13925366 123.37607069 26.12670898 126.140625 C26.14154327 126.95830856 26.15637756 127.77599213 26.17166138 128.61845398 C26.1209796 132.53156313 25.90720129 134.34889066 23.19924927 137.26403809 C19.76085349 139.18633197 17.32871174 139.27484354 13.3984375 139.2890625 C12.72692154 139.2928894 12.05540558 139.29671631 11.36354065 139.30065918 C9.9507598 139.30336941 8.53792801 139.29607038 7.12524414 139.27929688 C4.96712284 139.25783516 2.81231668 139.27914008 0.65429688 139.3046875 C-0.72266356 139.30204472 -2.09962195 139.29692075 -3.4765625 139.2890625 C-4.72252197 139.28455078 -5.96848145 139.28003906 -7.25219727 139.27539062 C-11.18392381 138.64350068 -12.11275813 137.92510895 -14.47265625 134.7578125 C-14.8553937 132.02509941 -14.99717387 129.69588282 -14.95507812 126.96679688 C-14.95899063 126.1856955 -14.96290314 125.40459412 -14.9669342 124.599823 C-14.97290676 122.90509344 -14.96974353 121.2103126 -14.95851135 119.51560974 C-14.94122442 116.82324354 -14.94877347 114.13194915 -14.96276855 111.4395752 C-14.99240244 104.74656527 -14.97929392 98.05375958 -14.96759033 91.36071777 C-14.95934146 85.71347068 -14.96752741 80.06669118 -14.99671936 74.41950989 C-15.00375023 71.78502287 -14.98720884 69.15138759 -14.96960449 66.51696777 C-14.97088363 54.52395678 -15.81333812 43.43863589 -24.609375 34.37890625 C-33.30649919 26.81222588 -43.45352129 27.11807696 -54.39550781 27.58300781 C-58.71729087 27.94671217 -61.95288922 29.29470431 -65.47265625 31.7578125 C-66.18808594 32.25539063 -66.90351563 32.75296875 -67.640625 33.265625 C-74.20360362 38.4060272 -77.15005567 44.62375611 -78.47265625 52.7578125 C-78.56829055 55.44354151 -78.61641419 58.10386351 -78.61450195 60.78930664 C-78.61797638 61.58340439 -78.62145081 62.37750214 -78.62503052 63.19566345 C-78.63236206 64.91385771 -78.63772125 66.63206128 -78.64132118 68.35026741 C-78.648508 71.06964366 -78.66418881 73.78884171 -78.68266296 76.50816345 C-78.73504504 84.23759605 -78.7831476 91.96692667 -78.79858398 99.6965332 C-78.808654 104.42925767 -78.83794539 109.16152685 -78.87990379 113.89407158 C-78.8922247 115.6965637 -78.89733306 117.49912005 -78.89510536 119.30165291 C-78.89275744 121.82016971 -78.91487569 124.33737336 -78.94262695 126.85571289 C-78.93272484 127.97249924 -78.93272484 127.97249924 -78.92262268 129.11184692 C-78.98459992 132.53308564 -79.23530745 134.43770088 -81.29777527 137.21934509 C-84.45011038 139.44924404 -86.89154601 139.27570704 -90.72265625 139.2890625 C-91.4177832 139.2928894 -92.11291016 139.29671631 -92.82910156 139.30065918 C-94.29493666 139.3033743 -95.76082053 139.29604085 -97.2265625 139.27929688 C-99.465946 139.25787669 -101.70212212 139.27910693 -103.94140625 139.3046875 C-105.36849664 139.30204415 -106.79558504 139.296919 -108.22265625 139.2890625 C-109.516875 139.28455078 -110.81109375 139.28003906 -112.14453125 139.27539062 C-116.10744622 138.65909223 -117.03227176 137.86428855 -119.47265625 134.7578125 C-119.97602081 132.13442135 -119.97602081 132.13442135 -119.98059082 129.09593201 C-119.99187012 127.94202972 -120.00314941 126.78812744 -120.01477051 125.59925842 C-120.00667358 124.33730148 -119.99857666 123.07534454 -119.99023438 121.77514648 C-119.99565582 120.42967979 -120.00277861 119.08421904 -120.01147461 117.73876953 C-120.02970697 114.08794684 -120.02264161 110.43757637 -120.00995827 106.78674579 C-119.99983208 102.96711682 -120.00922268 99.1475266 -120.01550293 95.32789612 C-120.02277959 88.91457158 -120.01319033 82.50143132 -119.99414062 76.08813477 C-119.97236241 68.67053075 -119.97942979 61.25336634 -120.00144625 53.83577293 C-120.01958876 47.4687808 -120.02216453 41.10192112 -120.01169157 34.7349115 C-120.00545144 30.93139535 -120.00463525 27.12808597 -120.01783752 23.32458305 C-120.02937924 19.74983219 -120.02140206 16.17564919 -119.9982605 12.60095978 C-119.99043542 10.66092716 -120.00234303 8.7208466 -120.01477051 6.78083801 C-120.00349121 5.62975555 -119.99221191 4.4786731 -119.98059082 3.29270935 C-119.97908272 2.29038489 -119.97757462 1.28806044 -119.97602081 0.25536251 C-119.47265625 -2.2421875 -119.47265625 -2.2421875 -117.62497711 -4.06187344 C-112.86933705 -6.66982514 -106.82119472 -5.75283947 -101.53515625 -5.7421875 C-99.62186523 -5.78472656 -99.62186523 -5.78472656 -97.66992188 -5.828125 C-88.41553972 -5.84753639 -88.41553972 -5.84753639 -84.14453125 -3.10546875 C-82.23612862 0.16289371 -81.78436653 2.30260064 -81.66015625 6.0703125 C-81.61246094 7.13894531 -81.56476563 8.20757812 -81.515625 9.30859375 C-81.50144531 10.11683594 -81.48726563 10.92507813 -81.47265625 11.7578125 C-81.01117188 11.24992187 -80.5496875 10.74203125 -80.07421875 10.21875 C-60.0765919 -10.8854649 -24.91943538 -14.91418839 0 0 Z " fill="#0EB430" transform="translate(405.47265625,463.2421875)"/>
<path d="M0 0 C2.01087109 -0.0043741 4.01954603 -0.04072142 6.0300293 -0.07861328 C7.30426758 -0.08248047 8.57850586 -0.08634766 9.89135742 -0.09033203 C11.05465576 -0.0985498 12.2179541 -0.10676758 13.41650391 -0.11523438 C17.3232384 0.484226 18.80009081 1.59492821 21.58276367 4.37060547 C22.20638275 7.06979847 22.20638275 7.06979847 22.20422363 10.21748352 C22.21543243 11.41294296 22.22664124 12.6084024 22.2381897 13.84008789 C22.22492645 15.14864746 22.21166321 16.45720703 22.19799805 17.80541992 C22.20150005 19.2003802 22.20715953 20.59533648 22.21481323 21.99028015 C22.22907451 25.78045038 22.21197829 29.56989602 22.18852806 33.35999703 C22.16839438 37.33815481 22.17430069 41.31628316 22.17663574 45.29447937 C22.17658213 51.98704928 22.15681691 58.67933735 22.12475586 65.37182617 C22.0880268 73.07543054 22.07905715 80.77866348 22.08605337 88.48234397 C22.09239779 95.91794363 22.08152117 103.35341768 22.06208801 110.78899193 C22.05397794 113.93891397 22.05119264 117.0887712 22.05278015 120.23870277 C22.05367034 123.96773189 22.03914425 127.69641762 22.01355362 131.42535591 C22.00316533 133.42031328 22.00702094 135.4153296 22.01156616 137.41030884 C21.83028569 156.999779 16.54153913 175.88762797 2.95776367 190.55810547 C-7.78803705 200.62196115 -21.6621532 206.72117399 -36.41723633 207.37060547 C-38.01051758 207.46535156 -38.01051758 207.46535156 -39.63598633 207.56201172 C-54.95789236 208.06093933 -70.98746097 204.7687283 -83.41723633 195.37060547 C-85.62556693 192.05810957 -85.62266893 190.77733966 -85.02661133 186.95263672 C-82.9284974 178.06255143 -79.999509 168.95287814 -73.41723633 162.37060547 C-68.67489839 162.60193903 -64.86449691 164.3961761 -60.66333008 166.43310547 C-52.74466351 169.73828804 -41.26294232 169.97951144 -33.29223633 166.74560547 C-25.24542073 162.37561198 -22.07096061 154.80696105 -19.41723633 146.37060547 C-18.75762855 141.63979129 -18.7449806 136.99122677 -18.78955078 132.22021484 C-18.78435865 130.84563227 -18.77694839 129.4710566 -18.76751709 128.09649658 C-18.75207813 125.16303682 -18.75203167 122.23014922 -18.76452065 119.29667664 C-18.78420927 114.65696008 -18.76877951 110.01774414 -18.74906921 105.37805176 C-18.72203376 98.04497238 -18.71840862 90.71210046 -18.72484225 83.37898111 C-18.73582791 70.22712239 -18.71117589 57.07532422 -18.6710946 43.92352915 C-18.65803143 39.31160447 -18.65675866 34.69986928 -18.66522753 30.08793545 C-18.66884982 27.22517799 -18.66455602 24.36246912 -18.65838623 21.49971771 C-18.65678232 19.53966152 -18.66524705 17.5796052 -18.67399597 15.61956787 C-18.67005829 14.45342957 -18.66612061 13.28729126 -18.6620636 12.08581543 C-18.66302693 11.07268028 -18.66399027 10.05954514 -18.6649828 9.01570892 C-18.40933165 6.28620991 -17.87795709 4.6710846 -16.41723633 2.37060547 C-11.74157745 -0.97989514 -5.49184963 -0.00133997 0 0 Z " fill="#0CB2BF" transform="translate(794.417236328125,398.62939453125)"/>
<path d="M0 0 C8.23816948 5.89893617 13.76618146 13.95568671 15.93359375 23.93359375 C17.72408896 37.04178709 15.65904576 48.90225293 8.12890625 59.84375 C1.83782092 67.90052456 -7.27189126 73.14342947 -17.3515625 74.96484375 C-28.51245441 76.29179018 -39.70286856 75.15733612 -49.125 68.5 C-58.59946567 60.54464697 -64.96498163 51.04038014 -66.0859375 38.48828125 C-66.21674411 25.34221726 -63.99821417 15.14894139 -54.75 5.25 C-54.23824219 4.68539063 -53.72648438 4.12078125 -53.19921875 3.5390625 C-39.80499634 -9.55603335 -15.25879942 -9.40163259 0 0 Z " fill="#FDFCF9" transform="translate(634.75,495.75)"/>
<path d="M0 0 C0.69512695 -0.00478363 1.39025391 -0.00956726 2.10644531 -0.01449585 C3.57228872 -0.01788977 5.03820833 -0.00872231 6.50390625 0.01220703 C8.74390886 0.03898967 10.97890266 0.01245251 13.21875 -0.01953125 C14.64584436 -0.01622705 16.07293561 -0.00982058 17.5 0 C19.44132813 0.00845947 19.44132813 0.00845947 21.421875 0.01708984 C24.75 0.6640625 24.75 0.6640625 26.92565918 2.46255493 C29.71560458 7.35858709 29.30716933 11.99194384 29.26757812 17.53515625 C29.2745874 18.73729767 29.28159668 19.93943909 29.28881836 21.17800903 C29.30339101 24.46741842 29.29999821 27.75618231 29.28730202 31.04558182 C29.27715736 34.49190858 29.28657175 37.93819299 29.29284668 41.38452148 C29.30011887 47.17146519 29.29054683 52.95820453 29.27148438 58.74511719 C29.2497162 65.43051881 29.2567679 72.11543246 29.27879 78.80082226 C29.29695641 84.54621901 29.29949633 90.29146906 29.28903532 96.03688526 C29.28280711 99.46598621 29.28194593 102.89485797 29.29518127 106.32394409 C29.30532761 110.14728901 29.28987034 113.96969393 29.26757812 117.79296875 C29.27567505 118.92662872 29.28377197 120.0602887 29.29211426 121.228302 C29.20957749 128.86052093 29.20957749 128.86052093 26.91893005 132.86557007 C23.85040569 135.41001258 21.70641622 135.31023456 17.75390625 135.328125 C17.08334702 135.33290863 16.41278778 135.33769226 15.72190857 135.34262085 C14.30733894 135.34601456 12.89269033 135.33684847 11.47827148 135.31591797 C9.32160998 135.28917546 7.17017042 135.31564976 5.01367188 135.34765625 C3.63540525 135.34435122 2.25714187 135.33794304 0.87890625 135.328125 C-0.36818115 135.32248535 -1.61526855 135.3168457 -2.90014648 135.31103516 C-7.38480748 134.4448919 -8.55371985 133.36872855 -11.25 129.6640625 C-11.99883771 125.71176774 -11.92248632 121.80538983 -11.88110352 117.79296875 C-11.88825882 116.59082733 -11.89541412 115.38868591 -11.90278625 114.15011597 C-11.91678289 110.86056589 -11.90837969 107.57203639 -11.88869596 104.28254318 C-11.87228603 100.83622068 -11.88112559 97.38994867 -11.88621521 93.94360352 C-11.8907336 88.1566066 -11.87488257 82.36993318 -11.84692383 76.58300781 C-11.81487269 69.89759214 -11.81488825 63.21275983 -11.8321386 56.52730274 C-11.8480162 50.08956926 -11.84126232 43.65204914 -11.82420158 37.21432495 C-11.81733858 34.47755231 -11.81835569 31.74095109 -11.82574654 29.00418091 C-11.8311902 25.18080381 -11.81084803 21.3584202 -11.78344727 17.53515625 C-11.78997314 16.40149628 -11.79649902 15.2678363 -11.80322266 14.099823 C-11.71015402 6.47114091 -11.71015402 6.47114091 -9.42466736 2.46255493 C-6.29514962 -0.12561743 -4.02309789 0.01753093 0 0 Z " fill="#0AB1BE" transform="translate(852.25,467.3359375)"/>
<path d="M0 0 C2 1 2 1 3.1015625 3.37109375 C6.22653869 15.9932802 5.22362687 31.11410803 0 43 C-0.36222656 43.87398438 -0.72445312 44.74796875 -1.09765625 45.6484375 C-8.12083879 61.1232465 -21.55670222 73.02268089 -37.22265625 79.2890625 C-45.04260286 81.98292267 -52.14050327 83.15928884 -60.375 83.0625 C-61.11105469 83.05798828 -61.84710938 83.05347656 -62.60546875 83.04882812 C-64.40368158 83.03715142 -66.20185197 83.01922011 -68 83 C-68.28672328 72.50151688 -64.55884768 66.04871647 -58 58 C-57.21625 56.989375 -56.4325 55.97875 -55.625 54.9375 C-52.89179416 51.87891251 -49.99321475 49.25884906 -46.8671875 46.61328125 C-45.16296232 45.14080217 -43.56975784 43.61363306 -42 42 C-56.28730017 49.34309209 -69.80616413 57.28283545 -76 73 C-76.37866702 74.65695509 -76.72642724 76.3224879 -77 78 C-84.27871732 72.71936195 -87.51726839 66.58875761 -89.8125 57.9375 C-89.874375 56.968125 -89.93625 55.99875 -90 55 C-90.05027344 54.25234375 -90.10054688 53.5046875 -90.15234375 52.734375 C-90.56861329 41.87806532 -86.69629274 33.2959025 -79.44140625 25.27734375 C-68.13299896 14.67401702 -52.34677624 13.17775448 -37.625 12.125 C-25.43554716 11.22273856 -9.15914901 9.15914901 0 0 Z " fill="#0FB431" transform="translate(531,390)"/>
<path d="M0 0 C2.10309967 3.1546495 2.25237473 3.90211804 2.26742554 7.50314331 C2.27595551 8.42559845 2.28448547 9.34805359 2.29327393 10.29846191 C2.29236755 11.3084021 2.29146118 12.31834229 2.29052734 13.35888672 C2.29724457 14.4241861 2.30396179 15.48948547 2.31088257 16.58706665 C2.32992163 20.11798737 2.33378977 23.64871861 2.3359375 27.1796875 C2.34236134 29.62964965 2.34908939 32.07961102 2.35610962 34.52957153 C2.3680972 39.66930928 2.37178892 44.80897973 2.37060547 49.94873047 C2.37040221 56.53870549 2.39770587 63.12824962 2.43214989 69.71812248 C2.45437409 74.77957139 2.45844438 79.84091588 2.45738602 84.9024086 C2.45974867 87.33211884 2.46860935 89.76183167 2.48405075 92.19149399 C2.50361929 95.58874536 2.49790789 98.98505813 2.48583984 102.38232422 C2.49707886 103.38821594 2.50831787 104.39410767 2.51989746 105.43048096 C2.48070883 109.76602297 2.39565519 112.3214926 0.17764282 116.12515259 C-2.94890319 118.81696074 -5.16815578 118.6161107 -9.25 118.59375 C-9.94512695 118.59379028 -10.64025391 118.59383057 -11.35644531 118.59387207 C-12.82235788 118.58852383 -14.28827037 118.57097005 -15.75390625 118.54199219 C-17.99308216 118.50012933 -20.22924866 118.50092475 -22.46875 118.5078125 C-34.46872494 118.41957739 -34.46872494 118.41957739 -38 115 C-38.49219131 112.86609364 -38.49219131 112.86609364 -38.48101807 110.34931946 C-38.48651672 109.39439606 -38.49201538 108.43947266 -38.49768066 107.45561218 C-38.48329956 106.40976456 -38.46891846 105.36391693 -38.45410156 104.28637695 C-38.45468567 103.1837854 -38.45526978 102.08119385 -38.45587158 100.94519043 C-38.45307987 97.2925696 -38.42193518 93.64075991 -38.390625 89.98828125 C-38.38316651 87.45908555 -38.37747173 84.92988408 -38.37347412 82.40068054 C-38.35975038 76.41886042 -38.3282099 70.43738968 -38.28807616 64.45570964 C-38.24337575 57.64565376 -38.22137584 50.83558397 -38.20129442 44.02541792 C-38.15947739 30.01678345 -38.08911463 16.00840771 -38 2 C-36.92685547 2.01571045 -36.92685547 2.01571045 -35.83203125 2.03173828 C-32.55472399 2.07360556 -29.27747326 2.09942329 -26 2.125 C-24.31197266 2.15013672 -24.31197266 2.15013672 -22.58984375 2.17578125 C-15.25819272 2.2186564 -6.9589489 -1.02337484 0 0 Z " fill="#0DB532" transform="translate(499,484)"/>
<path d="M0 0 C6.66538571 1.67419421 11.504628 10.86922268 14.9140625 16.52734375 C19.52838393 24.71475018 22.28070721 32.05641029 20.48828125 41.625 C18.69370903 47.3302874 14.31312006 51.32046051 9.48828125 54.625 C4.9802216 56.73515558 0.41005026 57.47417846 -4.51171875 56.625 C-11.19172155 54.19042066 -16.18613015 51.33710965 -19.40625 44.8125 C-22.44918522 37.69842314 -22.29111432 32.09167829 -19.57421875 24.9375 C-16.01724337 16.9520396 -8.90403708 2.21562354 0 0 Z " fill="#0DB0BE" transform="translate(861.51171875,399.375)"/>
<path d="M0 0 C3.14621682 0.13822199 6.29185566 0.28685084 9.4375 0.4375 C10.33533203 0.47681641 11.23316406 0.51613281 12.15820312 0.55664062 C13.01220703 0.59853516 13.86621094 0.64042969 14.74609375 0.68359375 C15.53685303 0.72025146 16.3276123 0.75690918 17.14233398 0.79467773 C19 1 19 1 20 2 C21.85772162 1.91015699 23.71247985 1.75388139 25.5625 1.5625 C26.57441406 1.46066406 27.58632813 1.35882813 28.62890625 1.25390625 C29.41136719 1.17011719 30.19382812 1.08632813 31 1 C28.52620632 3.47379368 26.3071065 3.96652922 23 5 C22.01 5.495 22.01 5.495 21 6 C21 5.34 21 4.68 21 4 C19.19402344 4.01740234 19.19402344 4.01740234 17.3515625 4.03515625 C15.77604321 4.04453434 14.20052225 4.05363452 12.625 4.0625 C11.43390625 4.07506836 11.43390625 4.07506836 10.21875 4.08789062 C4.2265625 4.11328125 4.2265625 4.11328125 2 3 C2.10710992 17.06423223 2.21991356 31.12840881 2.33933926 45.19254208 C2.39461924 51.72233793 2.44804721 58.25213822 2.49731445 64.78198242 C2.54488332 71.07785144 2.59722313 77.37366402 2.65294075 83.66946602 C2.6733983 86.07733323 2.69210561 88.48521595 2.70907402 90.89311028 C2.73304301 94.25293485 2.76310747 97.61265161 2.79467773 100.97241211 C2.8004332 101.97869659 2.80618866 102.98498108 2.81211853 104.02175903 C2.82190735 104.93186234 2.83169617 105.84196564 2.84178162 106.77964783 C2.84823417 107.57515517 2.85468672 108.37066252 2.8613348 109.19027615 C2.80410411 111.02111023 2.80410411 111.02111023 4 112 C15.22 112 26.44 112 38 112 C38.33 75.7 38.66 39.4 39 2 C39.33 2 39.66 2 40 2 C40.09348117 16.12541564 40.16373161 30.25078325 40.20724869 44.37644482 C40.22813351 50.93539843 40.2564682 57.49414441 40.30175781 64.05297852 C40.34518257 70.38126482 40.36913036 76.70935125 40.37950897 83.03777504 C40.38690631 85.45354675 40.40135136 87.86930738 40.42292023 90.28499413 C40.45190843 93.66574212 40.45595778 97.04566162 40.45410156 100.42651367 C40.47567322 101.92839485 40.47567322 101.92839485 40.49768066 103.46061707 C40.47192099 107.78937525 40.3943476 110.32359635 38.17962646 114.12239075 C35.05182506 116.81679226 32.83453323 116.61612543 28.75 116.59375 C28.05487305 116.59379028 27.35974609 116.59383057 26.64355469 116.59387207 C25.17764212 116.58852383 23.71172963 116.57097005 22.24609375 116.54199219 C20.00691784 116.50012933 17.77075134 116.50092475 15.53125 116.5078125 C3.53127506 116.41957739 3.53127506 116.41957739 0 113 C-0.49219131 110.86609364 -0.49219131 110.86609364 -0.48101807 108.34931946 C-0.48651672 107.39439606 -0.49201538 106.43947266 -0.49768066 105.45561218 C-0.48329956 104.40976456 -0.46891846 103.36391693 -0.45410156 102.28637695 C-0.45468567 101.1837854 -0.45526978 100.08119385 -0.45587158 98.94519043 C-0.45307987 95.2925696 -0.42193518 91.64075991 -0.390625 87.98828125 C-0.38316651 85.45908555 -0.37747173 82.92988408 -0.37347412 80.40068054 C-0.35975038 74.41886042 -0.3282099 68.43738968 -0.28807616 62.45570964 C-0.24337575 55.64565376 -0.22137584 48.83558397 -0.20129442 42.02541792 C-0.15947739 28.01678345 -0.08911463 14.00840771 0 0 Z " fill="#0EAA1F" transform="translate(461,486)"/>
<path d="M0 0 C0.66 0.33 1.32 0.66 2 1 C0.43910974 2.41844009 -1.1237889 3.83467025 -2.6875 5.25 C-3.55761719 6.03890625 -4.42773438 6.8278125 -5.32421875 7.640625 C-7.82438229 9.84514876 -10.39788565 11.91830852 -13 14 C-14.68528688 15.64783606 -16.35697047 17.31002677 -18 19 C-18 18.34 -18 17.68 -18 17 C-19.32 17 -20.64 17 -22 17 C-22.66 16.67 -23.32 16.34 -24 16 C-19.11774067 11.00532023 -13.66276922 7.42252565 -7.625 4 C-6.91085937 3.59015869 -6.19671875 3.18031738 -5.4609375 2.75805664 C-3.67675456 1.77041434 -1.84135955 0.87643658 0 0 Z " fill="#F4F9F2" transform="translate(489,431)"/>
<path d="M0 0 C0.66 0.33 1.32 0.66 2 1 C1.20335937 1.8353125 1.20335937 1.8353125 0.390625 2.6875 C-9.10850877 12.94933794 -12.37177178 22.05184176 -12.125 35.9375 C-12.11597656 36.90751953 -12.10695313 37.87753906 -12.09765625 38.87695312 C-12.07426107 41.25156407 -12.04148176 43.62564776 -12 46 C-13.66077117 43.08655402 -14.249124 41.00957088 -14.23046875 37.6640625 C-14.22853516 36.84679687 -14.22660156 36.02953125 -14.22460938 35.1875 C-14.21236328 34.341875 -14.20011719 33.49625 -14.1875 32.625 C-14.18685547 31.78710938 -14.18621094 30.94921875 -14.18554688 30.0859375 C-14.16010237 26.48978041 -14.02365914 23.14066729 -13.42578125 19.5859375 C-12.77624743 16.89433382 -12.77624743 16.89433382 -14 14 C-13.01 14 -12.02 14 -11 14 C-11 13.34 -11 12.68 -11 12 C-9.69306167 10.64078414 -8.35053546 9.31590635 -7 8 C-4.63715791 5.35887886 -2.31694922 2.68141314 0 0 Z " fill="#0CA21A" transform="translate(582,497)"/>
<path d="M0 0 C2.31 0.33 4.62 0.66 7 1 C4.23776722 3.76223278 1.79293383 3.57856291 -2 4 C-2.33 4.99 -2.66 5.98 -3 7 C-4.32 7 -5.64 7 -7 7 C-7 6.34 -7 5.68 -7 5 C-9.39719432 4.32041397 -9.39719432 4.32041397 -12 4 C-12.66 4.66 -13.32 5.32 -14 6 C-15.32 6 -16.64 6 -18 6 C-18.33 5.01 -18.66 4.02 -19 3 C-18.67 2.34 -18.34 1.68 -18 1 C-12.06 1 -6.12 1 0 1 C0 0.67 0 0.34 0 0 Z " fill="#19B739" transform="translate(615,570)"/>
<path d="M0 0 C7.92 0 15.84 0 24 0 C23.67 0.99 23.34 1.98 23 3 C15.74 3 8.48 3 1 3 C0.67 2.01 0.34 1.02 0 0 Z " fill="#1BB336" transform="translate(592,669)"/>
<path d="M0 0 C0.66 0.99 1.32 1.98 2 3 C-2.95901637 5.61475409 -7.7649622 7.71764501 -13.1171875 9.38671875 C-15.05916656 9.96782868 -15.05916656 9.96782868 -17 11 C-19.69565202 10.83219837 -22.32405554 10.38844355 -25 10 C-23.68 9.67 -22.36 9.34 -21 9 C-21 8.34 -21 7.68 -21 7 C-17.98968256 6.06576355 -17.13349732 5.95550089 -14 7 C-11.26703621 6.57822998 -11.26703621 6.57822998 -8.375 5.75 C-7.39273438 5.49734375 -6.41046875 5.2446875 -5.3984375 4.984375 C-4.60695312 4.65953125 -3.81546875 4.3346875 -3 4 C-2.67 3.01 -2.34 2.02 -2 1 C-1.34 0.67 -0.68 0.34 0 0 Z " fill="#19B73C" transform="translate(232,593)"/>
<path d="M0 0 C0 0.33 0 0.66 0 1 C2.64 1.66 5.28 2.32 8 3 C7.67 3.66 7.34 4.32 7 5 C6.01 5 5.02 5 4 5 C4 5.66 4 6.32 4 7 C0.30458414 7.95024979 -2.30458414 7.95024979 -6 7 C-5.360625 6.690625 -4.72125 6.38125 -4.0625 6.0625 C-2.06389179 5.1654837 -2.06389179 5.1654837 -1 4 C-4.3 3.34 -7.6 2.68 -11 2 C-11 1.67 -11 1.34 -11 1 C-7.27569643 0.30710631 -3.78916254 -0.11144596 0 0 Z " fill="#1CB73A" transform="translate(595,635)"/>
<path d="M0 0 C0.99 0 1.98 0 3 0 C2.67 1.65 2.34 3.3 2 5 C2.66 5.33 3.32 5.66 4 6 C4 6.66 4 7.32 4 8 C9.94 9.485 9.94 9.485 16 11 C16 11.33 16 11.66 16 12 C7.11110785 11.35353512 0.19211944 8.16357293 -7 3 C-5 2 -5 2 -1 2 C-0.67 1.34 -0.34 0.68 0 0 Z " fill="#0BABB9" transform="translate(718,591)"/>
<path d="M0 0 C0 3 0 3 -2.4375 5.5 C-3.283125 6.325 -4.12875 7.15 -5 8 C-5.33 8.99 -5.66 9.98 -6 11 C-6.99 11 -7.98 11 -9 11 C-10.01111093 14.04913228 -10.01111093 14.04913228 -9 17 C-10.32 17 -11.64 17 -13 17 C-13 16.34 -13 15.68 -13 15 C-13.99 15 -14.98 15 -16 15 C-14.80445767 11.413373 -13.95296467 11.09702877 -10.8125 9.1875 C-6.61363105 6.51122411 -3.38180146 3.64194004 0 0 Z " fill="#11AB23" transform="translate(644,617)"/>
<path d="M0 0 C-0.33 0.66 -0.66 1.32 -1 2 C-3.7761576 2.83491243 -6.49175748 3.54547397 -9.3125 4.1875 C-10.47168945 4.47270508 -10.47168945 4.47270508 -11.65429688 4.76367188 C-12.77868164 5.02567383 -12.77868164 5.02567383 -13.92578125 5.29296875 C-14.95312378 5.53309692 -14.95312378 5.53309692 -16.0012207 5.77807617 C-18.24642185 6.02736014 -19.85695657 5.66818349 -22 5 C-14.29293112 1.38993506 -8.50797181 -0.14420291 0 0 Z " fill="#11AD25" transform="translate(366,456)"/>
<path d="M0 0 C5.92863717 1.16651426 11.38798394 2.75519358 17 5 C17 5.66 17 6.32 17 7 C19.97 7.33 22.94 7.66 26 8 C26 8.33 26 8.66 26 9 C20.72697823 9.2494908 16.81201413 8.5266734 11.875 6.6875 C10.10769531 6.04361328 10.10769531 6.04361328 8.3046875 5.38671875 C5.32245875 4.1353107 2.67966043 2.80497882 0 1 C0 0.67 0 0.34 0 0 Z " fill="#12A821" transform="translate(563,595)"/>
<path d="M0 0 C0.33 0 0.66 0 1 0 C1.33 2.97 1.66 5.94 2 9 C2.99 8.67 3.98 8.34 5 8 C5 8.66 5 9.32 5 10 C5.66 10.33 6.32 10.66 7 11 C6.360625 11.391875 5.72125 11.78375 5.0625 12.1875 C2.56221181 14.38472296 2.35049575 15.75791433 2 19 C2.66 19.33 3.32 19.66 4 20 C3.34 20.66 2.68 21.32 2 22 C0.02931412 20.15596489 -0.94648579 18.70197053 -1.15380859 15.98242188 C-1.07039484 13.56086434 -0.900574 11.16358162 -0.6875 8.75 C-0.62626953 7.90953125 -0.56503906 7.0690625 -0.50195312 6.203125 C-0.34914175 4.13429401 -0.17649838 2.06694492 0 0 Z " fill="#19B73A" transform="translate(443,433)"/>
<path d="M0 0 C0.99 0 1.98 0 3 0 C2.67 1.65 2.34 3.3 2 5 C-8.89 5 -19.78 5 -31 5 C-31 4.67 -31 4.34 -31 4 C-30.13197754 3.98541748 -29.26395508 3.97083496 -28.36962891 3.95581055 C-25.15261121 3.89479889 -21.93624337 3.82065609 -18.71972656 3.73754883 C-17.32693911 3.70427127 -15.93401589 3.67624803 -14.54101562 3.65356445 C-12.54008622 3.62007311 -10.53953079 3.56618695 -8.5390625 3.51171875 C-6.73236084 3.47244263 -6.73236084 3.47244263 -4.88916016 3.43237305 C-3.45902588 3.21834839 -3.45902588 3.21834839 -2 3 C-1.34 2.01 -0.68 1.02 0 0 Z " fill="#1ABA40" transform="translate(426,595)"/>
<path d="M0 0 C0.33 0 0.66 0 1 0 C1 7.59 1 15.18 1 23 C0.34 23 -0.32 23 -1 23 C-1.66 25.64 -2.32 28.28 -3 31 C-4.12573128 27.62280617 -3.84790993 26.25708415 -3.1875 22.8125 C-2.25401393 17.63705005 -1.51078662 12.46833647 -0.875 7.25 C-0.78758545 6.53432861 -0.7001709 5.81865723 -0.61010742 5.08129883 C-0.40473786 3.38777394 -0.20206685 1.69392213 0 0 Z " fill="#17BA45" transform="translate(687,588)"/>
<path d="M0 0 C5.94 0 11.88 0 18 0 C18 0.99 18 1.98 18 3 C12.39 3 6.78 3 1 3 C0.67 2.01 0.34 1.02 0 0 Z " fill="#1BB439" transform="translate(591,603)"/>
<path d="M0 0 C2 3.75 2 3.75 2 6 C2.66 6 3.32 6 4 6 C4.33 6.99 4.66 7.98 5 9 C4.04504326 10.69287785 3.0409066 12.35857037 2 14 C1.30420546 16.19130534 1.30420546 16.19130534 1 18 C0.01 18 -0.98 18 -2 18 C-1.505 16.515 -1.505 16.515 -1 15 C-0.77281504 12.43365139 -0.58391816 9.88321893 -0.4375 7.3125 C-0.39431641 6.61060547 -0.35113281 5.90871094 -0.30664062 5.18554688 C-0.2008264 3.45724794 -0.09993419 1.7286489 0 0 Z " fill="#19B639" transform="translate(652,520)"/>
<path d="M0 0 C-0.99 0.33 -1.98 0.66 -3 1 C-3 1.66 -3 2.32 -3 3 C-7.23798336 6.45277325 -11.49897163 8.58742287 -17 9 C-12.90717886 4.37907291 -6.42502595 -2.14167532 0 0 Z " fill="#16AB28" transform="translate(573,463)"/>
<path d="M0 0 C1.64666203 0.1135629 3.29236082 0.24117381 4.9375 0.375 C5.85402344 0.44460938 6.77054688 0.51421875 7.71484375 0.5859375 C8.84599609 0.79089844 8.84599609 0.79089844 10 1 C10.33 1.66 10.66 2.32 11 3 C12.97522846 4.04808041 14.97481509 5.0520411 17 6 C15.02 6.99 15.02 6.99 13 8 C12.67 7.34 12.34 6.68 12 6 C10.35 6.33 8.7 6.66 7 7 C7.33 6.01 7.66 5.02 8 4 C5.36 4 2.72 4 0 4 C0 2.68 0 1.36 0 0 Z " fill="#18B93C" transform="translate(231,394)"/>
<path d="M0 0 C0.33 0.99 0.66 1.98 1 3 C2.32 2.34 3.64 1.68 5 1 C4.47731534 3.76276177 3.89130413 6.3260876 3 9 C2.01 9.495 2.01 9.495 1 10 C0.34444881 12.52733235 0.34444881 12.52733235 0 15 C-0.33 15 -0.66 15 -1 15 C-1.22211116 13.06403108 -1.42722992 11.12610672 -1.625 9.1875 C-1.74101562 8.10855469 -1.85703125 7.02960937 -1.9765625 5.91796875 C-2 3 -2 3 0 0 Z " fill="#18B638" transform="translate(132,558)"/>
<path d="M0 0 C0.33 0 0.66 0 1 0 C1.02917228 3.22914752 1.04685663 6.45826083 1.0625 9.6875 C1.07087891 10.59951172 1.07925781 11.51152344 1.08789062 12.45117188 C1.09111328 13.33740234 1.09433594 14.22363281 1.09765625 15.13671875 C1.10289307 15.94842529 1.10812988 16.76013184 1.11352539 17.59643555 C0.9929791 20.14864673 0.559949 22.51026137 0 25 C-0.66 24.67 -1.32 24.34 -2 24 C-2 22.35 -2 20.7 -2 19 C-2.66 19 -3.32 19 -4 19 C-4 18.34 -4 17.68 -4 17 C-3.34 17 -2.68 17 -2 17 C-0.47893366 13.95786733 -0.62570662 10.71952428 -0.4375 7.375 C-0.39431641 6.66859375 -0.35113281 5.9621875 -0.30664062 5.234375 C-0.20055249 3.48981463 -0.09977111 1.74493303 0 0 Z " fill="#0CA921" transform="translate(534,400)"/>
<path d="M0 0 C0.66 0.33 1.32 0.66 2 1 C1.375 4.375 1.375 4.375 0 8 C-3.0625 9.25 -3.0625 9.25 -6 10 C-6.33 10.99 -6.66 11.98 -7 13 C-7.33 12.34 -7.66 11.68 -8 11 C-7.04454634 9.53977837 -6.08553322 8.08188532 -5.125 6.625 C-4.59132813 5.81289063 -4.05765625 5.00078125 -3.5078125 4.1640625 C-2 2 -2 2 0 0 Z " fill="#11AB22" transform="translate(452,415)"/>
<path d="M0 0 C3.875 1.75 3.875 1.75 5 4 C5.08426094 5.6674606 5.10725143 7.33825187 5.09765625 9.0078125 C5.09443359 9.99394531 5.09121094 10.98007812 5.08789062 11.99609375 C5.07951172 13.02863281 5.07113281 14.06117188 5.0625 15.125 C5.05798828 16.16527344 5.05347656 17.20554687 5.04882812 18.27734375 C5.03701952 20.85161962 5.02055075 23.42578146 5 26 C4.67 26 4.34 26 4 26 C3.80414865 23.60458732 3.61807893 21.20907226 3.4375 18.8125 C3.38142578 18.13896484 3.32535156 17.46542969 3.26757812 16.77148438 C2.99036237 12.982869 3.03488839 9.68172206 4 6 C2.68 5.34 1.36 4.68 0 4 C0.66 4 1.32 4 2 4 C1.34 2.68 0.68 1.36 0 0 Z " fill="#19BC44" transform="translate(252,403)"/>
<path d="M0 0 C0.33 0 0.66 0 1 0 C1 5.61 1 11.22 1 17 C0.34 16.67 -0.32 16.34 -1 16 C-1.484375 13.1640625 -1.484375 13.1640625 -1.75 9.625 C-1.84796875 8.46226562 -1.9459375 7.29953125 -2.046875 6.1015625 C-2 3 -2 3 0 0 Z M-4 8 C-3.01 8.495 -3.01 8.495 -2 9 C-2.99 9.495 -2.99 9.495 -4 10 C-4 9.34 -4 8.68 -4 8 Z " fill="#13B93E" transform="translate(429,561)"/>
<path d="M0 0 C2.82639939 2.82639939 2.92896645 5.49607469 3.11352539 9.40356445 C3.10567017 10.62112427 3.10567017 10.62112427 3.09765625 11.86328125 C3.09282227 13.19262695 3.09282227 13.19262695 3.08789062 14.54882812 C3.07951172 15.46083984 3.07113281 16.37285156 3.0625 17.3125 C3.05798828 18.24384766 3.05347656 19.17519531 3.04882812 20.13476562 C3.03709234 22.42324373 3.02067363 24.71158808 3 27 C2.67 27 2.34 27 2 27 C2 21.39 2 15.78 2 10 C1.34 10 0.68 10 0 10 C-0.5625 8.0625 -0.5625 8.0625 -1 6 C-0.67 5.67 -0.34 5.34 0 5 C0.04063832 3.33382885 0.042721 1.66611905 0 0 Z " fill="#1ABA47" transform="translate(264,525)"/>
<path d="M0 0 C0.33 0.66 0.66 1.32 1 2 C0.67 2.99 0.34 3.98 0 5 C-0.06787176 6.49860851 -0.08499964 8.00002407 -0.0625 9.5 C-0.05347656 10.2734375 -0.04445312 11.046875 -0.03515625 11.84375 C-0.02355469 12.5553125 -0.01195312 13.266875 0 14 C0 14.99 0 15.98 0 17 C-0.66 17 -1.32 17 -2 17 C-2.3351658 14.87528825 -2.66807829 12.75022095 -3 10.625 C-3.185625 9.44164062 -3.37125 8.25828125 -3.5625 7.0390625 C-4 4 -4 4 -4 2 C-2.68 1.34 -1.36 0.68 0 0 Z " fill="#15B83D" transform="translate(173,437)"/>
<path d="M0 0 C8.01660243 0.3493073 11.2958521 2.2958521 17 8 C14.03 7.67 11.06 7.34 8 7 C8 6.01 8 5.02 8 4 C7.05125 3.71125 6.1025 3.4225 5.125 3.125 C2 2 2 2 0 0 Z " fill="#17B83D" transform="translate(213,481)"/>
<path d="M0 0 C0.66 0.33 1.32 0.66 2 1 C1.375 3.375 1.375 3.375 0 6 C-1.98636298 6.70626239 -3.98848259 7.36893571 -6 8 C-8.83459483 10.49958655 -8.83459483 10.49958655 -11 13 C-11.66 12.67 -12.32 12.34 -13 12 C-11.3989569 10.3719224 -9.79405264 8.74764115 -8.1875 7.125 C-7.29417969 6.22007812 -6.40085938 5.31515625 -5.48046875 4.3828125 C-3 2 -3 2 0 0 Z " fill="#0DA71C" transform="translate(157,401)"/>
<path d="M0 0 C0.66 0 1.32 0 2 0 C1.56699236 6.81987029 0.09212176 11.91643021 -3 18 C-5 15 -5 15 -5 13 C-4.34 12.67 -3.68 12.34 -3 12 C-3 11.01 -3 10.02 -3 9 C-2.505 8.38125 -2.01 7.7625 -1.5 7.125 C0.31754972 4.5501379 0.25692834 3.08314012 0 0 Z " fill="#14BA40" transform="translate(264,553)"/>
<path d="M0 0 C4.57478244 2.0214155 7.61831569 4.31993178 11 8 C9.948125 7.835 8.89625 7.67 7.8125 7.5 C4.79531204 7.10430322 2.02906028 6.90821029 -1 7 C-0.67 4.69 -0.34 2.38 0 0 Z " fill="#15B73C" transform="translate(640,465)"/>
<path d="M0 0 C0.33 0 0.66 0 1 0 C1 8.91 1 17.82 1 27 C-1.47368421 22.05263158 -1.47368421 22.05263158 -2 19 C-1.67 18.67 -1.34 18.34 -1 18 C-0.84417697 16.65984779 -0.74955858 15.31241097 -0.68359375 13.96484375 C-0.62075195 12.75151367 -0.62075195 12.75151367 -0.55664062 11.51367188 C-0.51732422 10.66353516 -0.47800781 9.81339844 -0.4375 8.9375 C-0.39431641 8.08349609 -0.35113281 7.22949219 -0.30664062 6.34960938 C-0.20023298 4.23327963 -0.09958269 2.11666187 0 0 Z " fill="#13B844" transform="translate(498,571)"/>
<path d="M0 0 C0 0.66 0 1.32 0 2 C2.64 2.99 5.28 3.98 8 5 C7.01 5.66 6.02 6.32 5 7 C4.505 6.71125 4.01 6.4225 3.5 6.125 C0.08247965 4.58711584 -3.3506202 3.85152195 -7 3 C-6.67 2.01 -6.34 1.02 -6 0 C-3.50907189 -1.24546405 -2.58919267 -0.7767578 0 0 Z " fill="#18B73B" transform="translate(225,424)"/>
<path d="M0 0 C1.125 3.75 1.125 3.75 0 6 C-0.66 6 -1.32 6 -2 6 C-2.103125 6.680625 -2.20625 7.36125 -2.3125 8.0625 C-3.14725019 11.62915989 -4.49472754 14.66222194 -6 18 C-7.25686099 14.22941703 -6.82745636 11.86146303 -6 8 C-4.625 6.375 -4.625 6.375 -3 5 C-1.96642853 3.35394174 -0.95939668 1.69036558 0 0 Z " fill="#1AB83C" transform="translate(539,492)"/>
<path d="M0 0 C0.99 0.33 1.98 0.66 3 1 C2.67 6.28 2.34 11.56 2 17 C1.67 17 1.34 17 1 17 C0.67 14.03 0.34 11.06 0 8 C-0.66 8 -1.32 8 -2 8 C-2 6.68 -2 5.36 -2 4 C-1.34 4 -0.68 4 0 4 C0 2.68 0 1.36 0 0 Z " fill="#19BA46" transform="translate(427,498)"/>
<path d="M0 0 C0.66 0.33 1.32 0.66 2 1 C-1.3 3.97 -4.6 6.94 -8 10 C-8.66 9.01 -9.32 8.02 -10 7 C-7.01767477 3.67356033 -4.13629913 1.70847138 0 0 Z " fill="#E2F5E3" transform="translate(489,431)"/>
<path d="M0 0 C1.98 0 3.96 0 6 0 C5.04578192 1.14926266 4.08647955 2.29430541 3.125 3.4375 C2.59132813 4.07558594 2.05765625 4.71367188 1.5078125 5.37109375 C0 7 0 7 -2 8 C-2.33 6.68 -2.66 5.36 -3 4 C-2.01 3.67 -1.02 3.34 0 3 C0 2.01 0 1.02 0 0 Z " fill="#15BA3D" transform="translate(664,643)"/>
<path d="M0 0 C1.39607277 3.74360914 0.57200275 6.02321534 -0.8125 9.6875 C-1.16957031 10.66074219 -1.52664063 11.63398438 -1.89453125 12.63671875 C-3 15 -3 15 -5 16 C-4.01 11.38 -3.02 6.76 -2 2 C-1.34 2 -0.68 2 0 2 C0 1.34 0 0.68 0 0 Z " fill="#12B941" transform="translate(531,422)"/>
<path d="M0 0 C5.452999 1.56818272 9.76486783 3.03810217 14 7 C12.02 7.33 10.04 7.66 8 8 C7.938125 7.071875 7.938125 7.071875 7.875 6.125 C7.58625 5.42375 7.2975 4.7225 7 4 C4.02496878 2.84164327 4.02496878 2.84164327 1 2 C0.67 1.34 0.34 0.68 0 0 Z " fill="#18AC28" transform="translate(241,396)"/>
<path d="M0 0 C1.65 0 3.3 0 5 0 C5 0.66 5 1.32 5 2 C10.94 3.485 10.94 3.485 17 5 C17 5.33 17 5.66 17 6 C10.59859065 5.53444296 5.73230171 3.85288164 0 1 C0 0.67 0 0.34 0 0 Z " fill="#12A3B3" transform="translate(717,597)"/>
<path d="M0 0 C0.66 0 1.32 0 2 0 C2.33 0.99 2.66 1.98 3 3 C1.39967863 3.84069415 -0.20541171 4.67231505 -1.8125 5.5 C-3.15248047 6.19609375 -3.15248047 6.19609375 -4.51953125 6.90625 C-7 8 -7 8 -10 8 C-9.67 7.01 -9.34 6.02 -9 5 C-6.36 4.67 -3.72 4.34 -1 4 C-0.67 2.68 -0.34 1.36 0 0 Z " fill="#14B63D" transform="translate(632,593)"/>
<path d="M0 0 C4.29 0 8.58 0 13 0 C10 3 10 3 7.73828125 3.29296875 C6.93777344 3.25816406 6.13726563 3.22335937 5.3125 3.1875 C4.10013672 3.14689453 4.10013672 3.14689453 2.86328125 3.10546875 C1.94095703 3.05326172 1.94095703 3.05326172 1 3 C0.67 2.01 0.34 1.02 0 0 Z " fill="#1DB739" transform="translate(604,487)"/>
<path d="M0 0 C0.99 0.495 0.99 0.495 2 1 C4.3400417 0.71758117 6.67504723 0.38749213 9 0 C9.33 0.99 9.66 1.98 10 3 C8.02 3.66 6.04 4.32 4 5 C3.67 4.34 3.34 3.68 3 3 C2.01 3 1.02 3 0 3 C0 2.01 0 1.02 0 0 Z " fill="#1BB83B" transform="translate(577,459)"/>
<path d="M0 0 C0.66 1.98 1.32 3.96 2 6 C-1.45925163 4.7508258 -4.14693203 3.32472205 -7 1 C-4.53721199 -0.231394 -2.7204945 -0.07159196 0 0 Z " fill="#16B63A" transform="translate(247,432)"/>
<path d="M0 0 C0.99 0 1.98 0 3 0 C2.67 6.27 2.34 12.54 2 19 C1.67 19 1.34 19 1 19 C0.67 12.73 0.34 6.46 0 0 Z " fill="#1CBA44" transform="translate(532,397)"/>
<path d="M0 0 C0.33 0.66 0.66 1.32 1 2 C1.99 2.33 2.98 2.66 4 3 C3.34 3 2.68 3 2 3 C2.33 4.65 2.66 6.3 3 8 C2.38125 7.814375 1.7625 7.62875 1.125 7.4375 C-1.04160178 6.76313824 -1.04160178 6.76313824 -3 8 C-1.125 2.25 -1.125 2.25 0 0 Z " fill="#16B838" transform="translate(545,629)"/>
<path d="M0 0 C0.5775 0.45375 1.155 0.9075 1.75 1.375 C3.7800333 2.84113516 5.73539843 3.94857784 8 5 C8 5.66 8 6.32 8 7 C6.02 6.34 4.04 5.68 2 5 C2 5.66 2 6.32 2 7 C1.34 6.67 0.68 6.34 0 6 C0 4.02 0 2.04 0 0 Z " fill="#17B73C" transform="translate(176,460)"/>
<path d="M0 0 C-0.33 0.66 -0.66 1.32 -1 2 C-3.64860427 2.59355614 -6.29197322 2.74209269 -9 3 C-9.33 2.01 -9.66 1.02 -10 0 C-6.33694766 -0.74926071 -3.57644848 -1.2380014 0 0 Z " fill="#20B338" transform="translate(628,668)"/>
<path d="M0 0 C1.03103689 4.12414757 0.94701684 4.9841142 -0.4375 8.75 C-0.72496094 9.54921875 -1.01242187 10.3484375 -1.30859375 11.171875 C-1.53675781 11.77515625 -1.76492188 12.3784375 -2 13 C-2.66 12.67 -3.32 12.34 -4 12 C-4.625 9.4375 -4.625 9.4375 -5 7 C-4.01 7.33 -3.02 7.66 -2 8 C-1.34 5.36 -0.68 2.72 0 0 Z " fill="#0DA821" transform="translate(686,611)"/>
<path d="M0 0 C0.66 0.33 1.32 0.66 2 1 C1.236875 1.9075 0.47375 2.815 -0.3125 3.75 C-2.28483107 6.114556 -4.18262034 8.51305942 -6 11 C-6.71484375 9.234375 -6.71484375 9.234375 -7 7 C-5.56640625 5.078125 -5.56640625 5.078125 -3.5625 3.25 C-2.90378906 2.63640625 -2.24507813 2.0228125 -1.56640625 1.390625 C-1.04949219 0.93171875 -0.53257812 0.4728125 0 0 Z " fill="#0BA91A" transform="translate(331,468)"/>
<path d="M0 0 C0.33 1.98 0.66 3.96 1 6 C-1.375 5.75 -1.375 5.75 -4 5 C-5.3125 2.9375 -5.3125 2.9375 -6 1 C-1.125 0 -1.125 0 0 0 Z " fill="#11AB27" transform="translate(135,582)"/>
<path d="M0 0 C-5.75 3.875 -5.75 3.875 -8 5 C-8 4.34 -8 3.68 -8 3 C-8.99 2.67 -9.98 2.34 -11 2 C-10.67 1.34 -10.34 0.68 -10 0 C-2.58823529 -1.29411765 -2.58823529 -1.29411765 0 0 Z " fill="#1BB939" transform="translate(626,634)"/>
<path d="M0 0 C1.9375 1.0625 1.9375 1.0625 4 3 C4.75 6.6875 4.75 6.6875 5 10 C3.68 8.68 2.36 7.36 1 6 C1.33 5.34 1.66 4.68 2 4 C1.01 4 0.02 4 -1 4 C-0.67 2.68 -0.34 1.36 0 0 Z " fill="#13B83E" transform="translate(415,474)"/>
<path d="M0 0 C1.32 0.66 2.64 1.32 4 2 C3.01 2.99 2.02 3.98 1 5 C2.65 5.33 4.3 5.66 6 6 C6 6.33 6 6.66 6 7 C3.69 7 1.38 7 -1 7 C-0.67 4.69 -0.34 2.38 0 0 Z " fill="#1DBB3F" transform="translate(465,464)"/>
<path d="M0 0 C1.95803507 -0.05389087 3.91648909 -0.09274217 5.875 -0.125 C7.51082031 -0.15980469 7.51082031 -0.15980469 9.1796875 -0.1953125 C12 0 12 0 14 2 C9.545 2.495 9.545 2.495 5 3 C5 2.67 5 2.34 5 2 C3.35 1.67 1.7 1.34 0 1 C0 0.67 0 0.34 0 0 Z " fill="#1CB63A" transform="translate(203,424)"/>
<path d="M0 0 C0.86625 0.185625 1.7325 0.37125 2.625 0.5625 C6.05152628 1.00667933 8.64212371 0.71954492 12 0 C9.26295246 2.73704754 6.73955226 3.16182449 3 4 C0.5625 3.625 0.5625 3.625 -1 3 C-0.67 2.01 -0.34 1.02 0 0 Z " fill="#12AC26" transform="translate(630,664)"/>
<path d="M0 0 C0.99 0.33 1.98 0.66 3 1 C1.02 3.97 1.02 3.97 -1 7 C-1.99 6.01 -2.98 5.02 -4 4 C-3.01 3.67 -2.02 3.34 -1 3 C-0.67 2.01 -0.34 1.02 0 0 Z " fill="#1EB53A" transform="translate(674,636)"/>
<path d="M0 0 C1.98 0.99 1.98 0.99 4 2 C5 5 5 5 4.0625 7.1875 C3.5365625 8.0846875 3.5365625 8.0846875 3 9 C2.34 9 1.68 9 1 9 C0.67 6.03 0.34 3.06 0 0 Z " fill="#18B739" transform="translate(388,503)"/>
<path d="M0 0 C0.66 0.33 1.32 0.66 2 1 C0.875 2.9375 0.875 2.9375 -1 5 C-4.1875 5.75 -4.1875 5.75 -7 6 C-2.25 1.125 -2.25 1.125 0 0 Z " fill="#0EA720" transform="translate(563,466)"/>
<path d="M0 0 C2 3.75 2 3.75 2 6 C0.02 6.99 -1.96 7.98 -4 9 C-2.80100302 5.9168649 -1.52299523 2.93720508 0 0 Z " fill="#0EA71C" transform="translate(649,608)"/>
<path d="M0 0 C1.98 1.65 3.96 3.3 6 5 C5.67 5.66 5.34 6.32 5 7 C4.01 7 3.02 7 2 7 C1.67 7.66 1.34 8.32 1 9 C1.33 7.35 1.66 5.7 2 4 C1.34 3.67 0.68 3.34 0 3 C0 2.01 0 1.02 0 0 Z " fill="#13BA3D" transform="translate(577,558)"/>
<path d="M0 0 C3.79303725 1.00193437 6.71536341 1.81024227 10 4 C7.83032311 4.95465783 6.43671207 5.14401212 4.17578125 4.3984375 C2.4315257 3.64129615 0.71372869 2.82390802 -1 2 C-0.67 1.34 -0.34 0.68 0 0 Z " fill="#19B539" transform="translate(145,554)"/>
<path d="M0 0 C0.33 0.66 0.66 1.32 1 2 C2.65 2 4.3 2 6 2 C6.33 3.32 6.66 4.64 7 6 C3.54074837 4.7508258 0.85306797 3.32472205 -2 1 C-1.34 0.67 -0.68 0.34 0 0 Z " fill="#16B93A" transform="translate(375,489)"/>
<path d="M0 0 C0.33 0.66 0.66 1.32 1 2 C-5.4 3.23076923 -5.4 3.23076923 -8.4375 2.0625 C-8.953125 1.711875 -9.46875 1.36125 -10 1 C-6.59437148 0.22157062 -3.49234244 -0.09978121 0 0 Z " fill="#10AA20" transform="translate(510,401)"/>
<path d="M0 0 C0.33 0.99 0.66 1.98 1 3 C0.67 3.66 0.34 4.32 0 5 C-1.65 5 -3.3 5 -5 5 C-4.1875 3.0625 -4.1875 3.0625 -3 1 C-2.01 0.67 -1.02 0.34 0 0 Z " fill="#13B73E" transform="translate(324,594)"/>
<path d="M0 0 C-2.31 1.65 -4.62 3.3 -7 5 C-7.66 4.67 -8.32 4.34 -9 4 C-8.67 3.01 -8.34 2.02 -8 1 C-2.59770115 -1.29885057 -2.59770115 -1.29885057 0 0 Z " fill="#0CA91C" transform="translate(479,437)"/>
<path d="M0 0 C0.33 1.32 0.66 2.64 1 4 C0.01 4.33 -0.98 4.66 -2 5 C-3.21869929 7.50447516 -3.21869929 7.50447516 -4 10 C-4.33 9.34 -4.66 8.68 -5 8 C-4.00390625 6.0546875 -4.00390625 6.0546875 -2.5625 3.875 C-2.08941406 3.15054687 -1.61632812 2.42609375 -1.12890625 1.6796875 C-0.75636719 1.12539063 -0.38382813 0.57109375 0 0 Z " fill="#0CA0B1" transform="translate(849,412)"/>
<path d="M0 0 C0.33 0 0.66 0 1 0 C1 2.64 1 5.28 1 8 C0.01 8 -0.98 8 -2 8 C-2.125 5.125 -2.125 5.125 -2 2 C-1.34 1.34 -0.68 0.68 0 0 Z " fill="#21B339" transform="translate(130,576)"/>
<path d="M0 0 C0.99 0.99 1.98 1.98 3 3 C1.68 3.99 0.36 4.98 -1 6 C-1.66 4.68 -2.32 3.36 -3 2 C-2.01 1.34 -1.02 0.68 0 0 Z " fill="#1EB537" transform="translate(334,494)"/>
<path d="M0 0 C2.31 0.33 4.62 0.66 7 1 C6.67 2.32 6.34 3.64 6 5 C5.34 5 4.68 5 4 5 C2 3 2 3 0 0 Z " fill="#18B93D" transform="translate(231,489)"/>
<path d="M0 0 C0.66 0.99 1.32 1.98 2 3 C1.34 4.32 0.68 5.64 0 7 C-0.99 6.34 -1.98 5.68 -3 5 C-3 4.01 -3 3.02 -3 2 C-2.01 1.34 -1.02 0.68 0 0 Z " fill="#19B73F" transform="translate(514,450)"/>
<path d="M0 0 C0.99 0.66 1.98 1.32 3 2 C1.02 4.97 1.02 4.97 -1 8 C-1.93065133 5.39417629 -2.14917407 4.35801776 -1.0625 1.75 C-0.711875 1.1725 -0.36125 0.595 0 0 Z " fill="#11B943" transform="translate(523,438)"/>
</svg>
